<?xml version="1.0" encoding="UTF-8" standalone="no"?>
<!-- Created with Inkscape (http://www.inkscape.org/) -->

<svg
   xmlns:dc="http://purl.org/dc/elements/1.1/"
   xmlns:cc="http://creativecommons.org/ns#"
   xmlns:rdf="http://www.w3.org/1999/02/22-rdf-syntax-ns#"
   xmlns:svg="http://www.w3.org/2000/svg"
   xmlns="http://www.w3.org/2000/svg"
   xmlns:xlink="http://www.w3.org/1999/xlink"
   xmlns:sodipodi="http://sodipodi.sourceforge.net/DTD/sodipodi-0.dtd"
   xmlns:inkscape="http://www.inkscape.org/namespaces/inkscape"
   width="48px"
   height="48px"
   id="svg2816"
   version="1.1"
   inkscape:version="0.47pre3 r22311"
   sodipodi:docname="download.svg"
   inkscape:export-filename="/home/kaji/dev/projects/ruby/irecorder/resources/download-22.png"
   inkscape:export-xdpi="41.25"
   inkscape:export-ydpi="41.25">
  <defs
     id="defs2818">
    <linearGradient
       inkscape:collect="always"
       id="linearGradient3608">
      <stop
         style="stop-color:#ffffff;stop-opacity:0"
         offset="0"
         id="stop3610" />
      <stop
         style="stop-color:#ffffff;stop-opacity:1"
         offset="1"
         id="stop3612" />
    </linearGradient>
    <inkscape:perspective
       sodipodi:type="inkscape:persp3d"
       inkscape:vp_x="0 : 24 : 1"
       inkscape:vp_y="0 : 1000 : 0"
       inkscape:vp_z="48 : 24 : 1"
       inkscape:persp3d-origin="24 : 16 : 1"
       id="perspective2824" />
    <linearGradient
       inkscape:collect="always"
       xlink:href="#linearGradient3608"
       id="linearGradient3614"
       x1="22.250929"
       y1="25.853745"
       x2="22.537174"
       y2="-2.518002"
       gradientUnits="userSpaceOnUse" />
  </defs>
  <sodipodi:namedview
     id="base"
     pagecolor="#ffffff"
     bordercolor="#666666"
     borderopacity="1.0"
     inkscape:pageopacity="0.0"
     inkscape:pageshadow="2"
     inkscape:zoom="11.208333"
     inkscape:cx="10.902529"
     inkscape:cy="25.331541"
     inkscape:current-layer="layer1"
     showgrid="true"
     inkscape:grid-bbox="true"
     inkscape:document-units="px"
     inkscape:window-width="1046"
     inkscape:window-height="790"
     inkscape:window-x="0"
     inkscape:window-y="216"
     inkscape:window-maximized="0" />
  <metadata
     id="metadata2821">
    <rdf:RDF>
      <cc:Work
         rdf:about="">
        <dc:format>image/svg+xml</dc:format>
        <dc:type
           rdf:resource="http://purl.org/dc/dcmitype/StillImage" />
        <dc:title></dc:title>
      </cc:Work>
    </rdf:RDF>
  </metadata>
  <g
     id="layer1"
     inkscape:label="Layer 1"
     inkscape:groupmode="layer"
     style="display:inline"
     sodipodi:insensitive="true">
    <path
       style="fill:none;stroke:#26c8e5;stroke-width:4.06899977;stroke-linecap:round;stroke-linejoin:round;stroke-miterlimit:4;stroke-opacity:1;stroke-dasharray:none"
       d="m 5.5160006,38.170666 0,7.079133 36.3455224,-0.08961 0.08716,-7.079133"
       id="down dish"
       sodipodi:nodetypes="cccc" />
    <path
       id="down base"
       d="m 15.65625,2.84375 c -0.816812,0 -1.5,0.6519385 -1.5,1.46875 l 0,17.6875 c 0,0.08188 0.01853,0.171819 0.03125,0.25 L 5.8125,22.21875 24.09375,39.625 41.40625,22.3125 33.8125,22.28125 C 33.82847,22.194009 33.84375,22.091992 33.84375,22 l 0,-17.6875 c 0,-0.8168115 -0.683188,-1.46875 -1.5,-1.46875 l -16.6875,0 z"
       style="fill:#26c8e5;fill-opacity:1;stroke:none" />
    <path
       style="fill:url(#linearGradient3614);fill-opacity:1;stroke:none"
       d="m 13.832887,21.705455 c 0.109889,1.293307 2.186077,1.168481 4.724734,1.223913 6.959108,-2.171003 6.60223,-5.2342 10.795539,-6.691449 2.334572,-0.475837 2.16751,-0.213149 4.639405,-0.04461 l 0.08922,-13.4275092 -20.163568,-0.08922 -0.08533,19.0288742 z"
       id="white mask"
       sodipodi:nodetypes="ccccccc" />
  </g>
  <g
     inkscape:groupmode="layer"
     id="layer2"
     inkscape:label="Layer1"
     style="display:inline">
    <path
       style="fill:none;stroke:#1681bb;stroke-width:2.41100001;stroke-linecap:round;stroke-linejoin:round;stroke-miterlimit:4;stroke-opacity:1;stroke-dasharray:none"
       d="m 15.65625,2.84375 c -0.816812,0 -1.5,0.6519385 -1.5,1.46875 l 0,17.6875 c 0,0.08188 0.01853,0.171819 0.03125,0.25 L 5.8125,22.21875 24.09375,39.625 41.40625,22.3125 33.8125,22.28125 C 33.82847,22.194009 33.84375,22.091992 33.84375,22 l 0,-17.6875 c 0,-0.8168115 -0.683188,-1.46875 -1.5,-1.46875 l -16.6875,0 z"
       id="down outline" />
  </g>
</svg>
