<?xml version="1.0" encoding="UTF-8" standalone="no"?>
<!-- Created with Inkscape (http://www.inkscape.org/) -->

<svg
   xmlns:dc="http://purl.org/dc/elements/1.1/"
   xmlns:cc="http://creativecommons.org/ns#"
   xmlns:rdf="http://www.w3.org/1999/02/22-rdf-syntax-ns#"
   xmlns:svg="http://www.w3.org/2000/svg"
   xmlns="http://www.w3.org/2000/svg"
   xmlns:xlink="http://www.w3.org/1999/xlink"
   xmlns:sodipodi="http://sodipodi.sourceforge.net/DTD/sodipodi-0.dtd"
   xmlns:inkscape="http://www.inkscape.org/namespaces/inkscape"
   width="48"
   height="48"
   id="svg2816"
   version="1.1"
   inkscape:version="0.47pre3 r22311"
   sodipodi:docname="play.svg"
   inkscape:export-filename="/home/r.t/dev/projects/ruby/irecorder/resources/images/play-22.png"
   inkscape:export-xdpi="41.25"
   inkscape:export-ydpi="41.25">
  <defs
     id="defs2818">
    <linearGradient
       id="linearGradient3836">
      <stop
         id="stop3838"
         offset="0"
         style="stop-color:#97bd08;stop-opacity:1" />
      <stop
         style="stop-color:#dd8e0a;stop-opacity:0.29565218;"
         offset="0.58916986"
         id="stop3842" />
      <stop
         id="stop3840"
         offset="1"
         style="stop-color:#a77c07;stop-opacity:0;" />
    </linearGradient>
    <linearGradient
       id="linearGradient3792">
      <stop
         style="stop-color:#eefef6;stop-opacity:1;"
         offset="0"
         id="stop3794" />
      <stop
         id="stop3802"
         offset="0.55086523"
         style="stop-color:#ecfef5;stop-opacity:0.43478259;" />
      <stop
         style="stop-color:#eafef4;stop-opacity:0.20869565;"
         offset="1"
         id="stop3796" />
    </linearGradient>
    <linearGradient
       id="linearGradient3747">
      <stop
         id="stop3749"
         offset="0"
         style="stop-color:#fee8ee;stop-opacity:1;" />
      <stop
         id="stop3751"
         offset="1"
         style="stop-color:#fee8ee;stop-opacity:0;" />
    </linearGradient>
    <linearGradient
       id="linearGradient3710">
      <stop
         style="stop-color:#50041a;stop-opacity:0.94782609;"
         offset="0"
         id="stop3712" />
      <stop
         style="stop-color:#7d0728;stop-opacity:0;"
         offset="1"
         id="stop3714" />
    </linearGradient>
    <linearGradient
       id="linearGradient3704">
      <stop
         id="stop3706"
         offset="0"
         style="stop-color:#f30e4f;stop-opacity:1;" />
      <stop
         id="stop3708"
         offset="1"
         style="stop-color:#f30e4f;stop-opacity:0;" />
    </linearGradient>
    <linearGradient
       id="linearGradient3662">
      <stop
         style="stop-color:#faa4bc;stop-opacity:1;"
         offset="0"
         id="stop3664" />
      <stop
         style="stop-color:#faa4bc;stop-opacity:0;"
         offset="1"
         id="stop3666" />
    </linearGradient>
    <inkscape:perspective
       sodipodi:type="inkscape:persp3d"
       inkscape:vp_x="0 : 24 : 1"
       inkscape:vp_y="0 : 1000 : 0"
       inkscape:vp_z="48 : 24 : 1"
       inkscape:persp3d-origin="24 : 16 : 1"
       id="perspective2824" />
    <linearGradient
       inkscape:collect="always"
       xlink:href="#linearGradient3710"
       id="linearGradient3716"
       x1="13.743673"
       y1="35.406525"
       x2="13.176471"
       y2="30.828331"
       gradientUnits="userSpaceOnUse" />
    <linearGradient
       inkscape:collect="always"
       xlink:href="#linearGradient3662"
       id="linearGradient3718"
       gradientUnits="userSpaceOnUse"
       x1="10.94991"
       y1="26.239168"
       x2="11.861011"
       y2="32.876606" />
    <linearGradient
       inkscape:collect="always"
       xlink:href="#linearGradient3792"
       id="linearGradient3798"
       x1="30.221041"
       y1="12.305126"
       x2="30.405033"
       y2="32.281811"
       gradientUnits="userSpaceOnUse"
       gradientTransform="matrix(1.2023711,0,0,1.4085053,-8.478138,-14.079974)" />
    <radialGradient
       inkscape:collect="always"
       xlink:href="#linearGradient3836"
       id="radialGradient3834"
       cx="25.095657"
       cy="40.015087"
       fx="25.095657"
       fy="40.015087"
       r="4.3891573"
       gradientTransform="matrix(1.2307383,-2.6182788,1.6441012,1.0605187,-74.978882,65.813082)"
       gradientUnits="userSpaceOnUse" />
  </defs>
  <sodipodi:namedview
     id="base"
     pagecolor="#ffffff"
     bordercolor="#666666"
     borderopacity="1.0"
     inkscape:pageopacity="0.0"
     inkscape:pageshadow="2"
     inkscape:zoom="14.511158"
     inkscape:cx="11.444086"
     inkscape:cy="30.285695"
     inkscape:current-layer="note"
     showgrid="true"
     inkscape:grid-bbox="true"
     inkscape:document-units="px"
     inkscape:window-width="1144"
     inkscape:window-height="708"
     inkscape:window-x="528"
     inkscape:window-y="316"
     inkscape:window-maximized="0" />
  <metadata
     id="metadata2821">
    <rdf:RDF>
      <cc:Work
         rdf:about="">
        <dc:format>image/svg+xml</dc:format>
        <dc:type
           rdf:resource="http://purl.org/dc/dcmitype/StillImage" />
        <dc:title></dc:title>
      </cc:Work>
    </rdf:RDF>
  </metadata>
  <g
     inkscape:groupmode="layer"
     id="backgroud"
     inkscape:label="BackGround" />
  <g
     id="note"
     inkscape:label="Note"
     inkscape:groupmode="layer"
     transform="matrix(0.95127642,-0.16448737,0.17557205,1.0153822,-5.4434385,3.0126751)">
    <path
       sodipodi:type="arc"
       style="fill:#f30e4f;fill-opacity:1;stroke:none"
       id="path2826"
       sodipodi:cx="13.176471"
       sodipodi:cy="30.828331"
       sodipodi:rx="5.8007202"
       sodipodi:ry="3.2653062"
       d="m 18.977191,30.828331 a 5.8007202,3.2653062 0 1 1 -11.6014405,0 5.8007202,3.2653062 0 1 1 11.6014405,0 z"
       transform="matrix(1.2068434,-0.58346296,0.84968568,1.179191,-35.258419,5.1346181)" />
    <path
       style="font-size:medium;font-style:normal;font-variant:normal;font-weight:normal;font-stretch:normal;text-indent:0;text-align:start;text-decoration:none;line-height:normal;letter-spacing:normal;word-spacing:normal;text-transform:none;direction:ltr;block-progression:tb;writing-mode:lr-tb;text-anchor:start;color:#000000;fill:#f30e4f;fill-opacity:1;stroke:none;stroke-width:2.24185109;marker:none;visibility:visible;display:inline;overflow:visible;enable-background:accumulate;font-family:Bitstream Vera Sans;-inkscape-font-specification:Bitstream Vera Sans"
       d="M 10.911027,0.80637133 C 10.340839,0.89842511 9.2399321,1.7013051 9.2754445,2.2346361 L 10.217047,28.735853 c -0.06003,0.637915 2.286616,3.365958 2.987354,3.351066 0.70074,-0.01487 1.272694,-0.677174 1.132045,-1.310826 L 13.74825,15.077194 c 0,0 1.648246,0.62493 2.614036,1.614877 1.590098,1.629868 1.462805,1.722653 1.671686,3.584595 0.358293,3.193772 -1.558578,9.51103 -1.558578,9.51103 4.345749,-4.912119 5.081046,-6.662105 5.331663,-10.043404 C 21.678468,17.870794 21.161792,14.864367 20.074491,13.452005 18.987189,12.039641 17.805397,10.770535 17.080074,9.5263041 15.607094,6.9995292 12.773292,1.7863044 12.773292,1.7863044 12.537048,1.3424761 11.433726,0.73155697 10.911027,0.80637133 z"
       id="note wing"
       sodipodi:nodetypes="cccsccssccsscc" />
    <path
       style="fill:#fee8ee;fill-opacity:0.66796875;stroke:none"
       d="M 9.8342493,2.3734046 11.079514,25.55335 11.319693,22.360991 10.688571,3.7226852 l 0.913261,-0.028986 4.59681,6.6923258 C 15.070562,7.8185718 14.255426,6.7853897 13.269756,4.9896612 12.720603,3.989199 12.004951,2.4680931 11.606656,1.993442 11.208362,1.5187908 9.8188703,2.0871281 9.8342493,2.3734046 z"
       id="note wing white mask"
       sodipodi:nodetypes="ccccccasz" />
    <path
       sodipodi:type="arc"
       style="fill:url(#linearGradient3716);fill-opacity:1;stroke:none"
       id="note black mask"
       sodipodi:cx="13.176471"
       sodipodi:cy="30.828331"
       sodipodi:rx="5.8007202"
       sodipodi:ry="3.2653062"
       d="m 18.977191,30.828331 a 5.8007202,3.2653062 0 1 1 -11.6014405,0 5.8007202,3.2653062 0 1 1 11.6014405,0 z"
       transform="matrix(1.1179928,-0.54567448,0.78780227,1.1030611,-32.073633,7.2753138)" />
    <path
       transform="matrix(0.88303925,-0.47805674,0.6283643,0.9685517,-25.415438,9.8079752)"
       d="m 18.977191,30.828331 a 5.8007202,3.2653062 0 1 1 -11.6014405,0 5.8007202,3.2653062 0 1 1 11.6014405,0 z"
       sodipodi:ry="3.2653062"
       sodipodi:rx="5.8007202"
       sodipodi:cy="30.828331"
       sodipodi:cx="13.176471"
       id="note white mask"
       style="fill:url(#linearGradient3718);fill-opacity:1;stroke:none"
       sodipodi:type="arc" />
    <path
       style="font-size:medium;font-style:normal;font-variant:normal;font-weight:normal;font-stretch:normal;text-indent:0;text-align:start;text-decoration:none;line-height:normal;letter-spacing:normal;word-spacing:normal;text-transform:none;direction:ltr;block-progression:tb;writing-mode:lr-tb;text-anchor:start;color:#000000;fill:#ffffff;fill-opacity:0.65546223;stroke:none;stroke-width:1px;marker:none;visibility:visible;display:inline;overflow:visible;enable-background:accumulate;font-family:Bitstream Vera Sans;-inkscape-font-specification:Bitstream Vera Sans"
       d="M 4.0290064,31.139627 C 3.3975891,30.604118 2.0341231,31.86416 1.4397116,32.678559 0.88841453,33.433889 0.23856972,35.158737 0.813128,35.581414 1.3885895,36.004753 2.7608097,34.701411 3.3484474,33.926085 3.8863682,33.216354 4.5891749,31.614708 4.0290064,31.139627 z"
       id="note hilight"
       sodipodi:nodetypes="cssss" />
  </g>
  <g
     inkscape:groupmode="layer"
     id="arrow"
     inkscape:label="Arrow">
    <path
       style="fill:#00b240;fill-opacity:1;stroke:none"
       d="m 20.063046,4.5603769 0,41.1271241 L 46.583618,26.159514 20.063046,4.5603769 z"
       id="arrow base color"
       sodipodi:nodetypes="cccc" />
    <path
       style="fill:url(#linearGradient3798);fill-opacity:1;stroke:none"
       d="M 20.281666,5.8434295 20.171048,25.409772 c 0,0 3.525552,1.453039 5.309504,1.166205 2.97325,-0.478057 5.138586,-3.937952 8.074868,-4.664822 2.599643,-0.643537 7.964253,0.38873 7.964253,0.38873 L 20.281666,5.8434295 z"
       id="arrow white mask"
       sodipodi:nodetypes="ccaacc" />
    <path
       style="fill:url(#radialGradient3834);fill-opacity:1;stroke:none"
       d="m 20.578586,32.21804 -0.186261,12.218843 10.554792,-7.200389 c 0,0 -2.204029,-4.665355 -4.159829,-5.600301 -1.922284,-0.918927 -6.208702,0.581847 -6.208702,0.581847 z"
       id="arrow tint corner"
       sodipodi:nodetypes="cccac" />
    <path
       sodipodi:nodetypes="cccc"
       id="arrow outline"
       d="M 20.125133,4.4149148 20.063045,45.687501 46.251772,26.029936 c 0,0 -26.126641,-21.6150212 -26.126641,-21.6150212 z"
       style="fill:none;stroke:#00672f;stroke-width:3.64381695;stroke-linecap:round;stroke-linejoin:round;stroke-miterlimit:4;stroke-opacity:1;stroke-dasharray:none" />
  </g>
</svg>
