<?xml version="1.0" encoding="UTF-8" standalone="no"?>
<!-- Created with Inkscape (http://www.inkscape.org/) -->

<svg
   xmlns:dc="http://purl.org/dc/elements/1.1/"
   xmlns:cc="http://creativecommons.org/ns#"
   xmlns:rdf="http://www.w3.org/1999/02/22-rdf-syntax-ns#"
   xmlns:svg="http://www.w3.org/2000/svg"
   xmlns="http://www.w3.org/2000/svg"
   xmlns:xlink="http://www.w3.org/1999/xlink"
   xmlns:sodipodi="http://sodipodi.sourceforge.net/DTD/sodipodi-0.dtd"
   xmlns:inkscape="http://www.inkscape.org/namespaces/inkscape"
   width="200"
   height="64"
   id="svg2816"
   version="1.1"
   inkscape:version="0.47pre3 r22311"
   sodipodi:docname="irecorder-logo.svg">
  <defs
     id="defs2818">
    <linearGradient
       id="linearGradient3608">
      <stop
         style="stop-color:#110f0f;stop-opacity:1;"
         offset="0"
         id="stop3610" />
      <stop
         style="stop-color:#585151;stop-opacity:1;"
         offset="1"
         id="stop3612" />
    </linearGradient>
    <linearGradient
       id="linearGradient3600">
      <stop
         style="stop-color:#000000;stop-opacity:1;"
         offset="0"
         id="stop3602" />
      <stop
         style="stop-color:#787878;stop-opacity:1;"
         offset="1"
         id="stop3604" />
    </linearGradient>
    <inkscape:perspective
       sodipodi:type="inkscape:persp3d"
       inkscape:vp_x="0 : 32 : 1"
       inkscape:vp_y="0 : 1000 : 0"
       inkscape:vp_z="64 : 32 : 1"
       inkscape:persp3d-origin="32 : 21.333333 : 1"
       id="perspective2824" />
    <linearGradient
       inkscape:collect="always"
       xlink:href="#linearGradient3600"
       id="linearGradient3614"
       x1="75.818184"
       y1="63.45454"
       x2="75.636391"
       y2="0.72727275"
       gradientUnits="userSpaceOnUse"
       gradientTransform="matrix(1.2039453,0,0,1.0481944,-0.86701822,-0.79082574)" />
    <inkscape:perspective
       id="perspective3688"
       inkscape:persp3d-origin="0.5 : 0.33333333 : 1"
       inkscape:vp_z="1 : 0.5 : 1"
       inkscape:vp_y="0 : 1000 : 0"
       inkscape:vp_x="0 : 0.5 : 1"
       sodipodi:type="inkscape:persp3d" />
    <inkscape:perspective
       id="perspective3710"
       inkscape:persp3d-origin="0.5 : 0.33333333 : 1"
       inkscape:vp_z="1 : 0.5 : 1"
       inkscape:vp_y="0 : 1000 : 0"
       inkscape:vp_x="0 : 0.5 : 1"
       sodipodi:type="inkscape:persp3d" />
  </defs>
  <sodipodi:namedview
     id="base"
     pagecolor="#ffffff"
     bordercolor="#666666"
     borderopacity="1.0"
     inkscape:pageopacity="0.0"
     inkscape:pageshadow="2"
     inkscape:zoom="2.9763752"
     inkscape:cx="92.195123"
     inkscape:cy="31.153319"
     inkscape:current-layer="layer1"
     showgrid="true"
     inkscape:document-units="px"
     inkscape:grid-bbox="true"
     inkscape:snap-global="true"
     inkscape:window-width="1271"
     inkscape:window-height="698"
     inkscape:window-x="197"
     inkscape:window-y="230"
     inkscape:window-maximized="0" />
  <metadata
     id="metadata2821">
    <rdf:RDF>
      <cc:Work
         rdf:about="">
        <dc:format>image/svg+xml</dc:format>
        <dc:type
           rdf:resource="http://purl.org/dc/dcmitype/StillImage" />
        <dc:title />
      </cc:Work>
    </rdf:RDF>
  </metadata>
  <g
     id="layer1"
     inkscape:label="Layer 1"
     inkscape:groupmode="layer">
    <rect
       style="fill:url(#linearGradient3614);fill-opacity:1;fill-rule:evenodd;stroke:none"
       id="rect2826"
       width="202.04393"
       height="65.750366"
       x="-0.21032037"
       y="-0.028502539" />
    <g
       id="g3807"
       transform="matrix(1.0128299,0,0,1.1526742,3.9605404,-6.9218683)">
      <path
         sodipodi:nodetypes="ccc"
         id="path3645"
         d="M 16.172385,52.398032 45.133144,33.579262 16.386655,15.836733"
         style="fill:none;stroke:#e5269a;stroke-width:2.26645708;stroke-linecap:round;stroke-linejoin:round;stroke-miterlimit:4;stroke-opacity:1;stroke-dasharray:none" />
      <rect
         y="30.882795"
         x="6.4974775"
         height="21.587536"
         width="9.46632"
         id="rect2884"
         style="fill:#e5269a;fill-opacity:1;fill-rule:nonzero;stroke:#e5269a;stroke-width:2.0824399;stroke-linecap:round;stroke-linejoin:round;stroke-miterlimit:4;stroke-opacity:1;stroke-dasharray:none" />
      <rect
         ry="0"
         y="15.720092"
         x="6.3285618"
         height="10.067836"
         width="9.4388256"
         id="rect3658"
         style="fill:#e5269a;fill-opacity:1;fill-rule:nonzero;stroke:#e5269a;stroke-width:2.21449614;stroke-linecap:round;stroke-linejoin:round;stroke-miterlimit:4;stroke-opacity:1;stroke-dasharray:none" />
    </g>
    <g
       id="use3763"
       transform="translate(9.0693035,1.0077001)">
      <path
         style="font-size:44.69659805px;font-style:normal;font-variant:normal;font-weight:bold;font-stretch:semi-condensed;text-align:start;line-height:100%;writing-mode:lr-tb;text-anchor:start;fill:#e5269a;fill-opacity:1;stroke:none;font-family:DejaVu Sans;-inkscape-font-specification:DejaVu Sans Bold Semi-Condensed"
         id="path3769"
         d="m 74.022955,36.075225 0,3.0682 -15.261757,0 c 0.148623,2.526764 0.695856,4.421827 1.641703,5.685193 0.959338,1.263384 2.290265,1.895071 3.992784,1.895064 1.378204,7e-6 2.783446,-0.330877 4.215731,-0.992652 1.44576,-0.681815 2.925318,-1.704546 4.438679,-3.068199 l 0,8.302186 c -1.540385,0.962575 -3.087503,1.684502 -4.641358,2.165788 -1.540381,0.50134 -3.080742,0.752009 -4.621091,0.75201 -3.702286,-10e-7 -6.58033,-1.544125 -8.634141,-4.63238 -2.040309,-3.1083 -3.06046,-7.459925 -3.060459,-13.054888 -1e-6,-5.494663 1.006638,-9.816207 3.019923,-12.964648 2.013275,-3.148381 4.783224,-4.722588 8.309854,-4.722622 3.215831,3.4e-5 5.7831,1.594294 7.701817,4.782783 1.932188,3.188547 2.898292,7.449932 2.898315,12.784165 m -6.708687,-3.579566 c -1.7e-5,-2.045444 -0.36484,-3.689838 -1.094469,-4.933185 -0.716148,-1.263349 -1.661985,-1.895036 -2.837511,-1.895064 -1.256624,2.8e-5 -2.283532,0.591608 -3.080727,1.774743 -0.783702,1.163133 -1.276889,2.847633 -1.47956,5.053506 l 8.492267,0" />
      <path
         style="font-size:44.69659805px;font-style:normal;font-variant:normal;font-weight:bold;font-stretch:semi-condensed;text-align:start;line-height:100%;writing-mode:lr-tb;text-anchor:start;fill:#e5269a;fill-opacity:1;stroke:none;font-family:DejaVu Sans;-inkscape-font-specification:DejaVu Sans Bold Semi-Condensed"
         id="path3771"
         d="m 92.241812,20.532142 0,8.783473 c -0.878297,-1.002653 -1.770088,-1.744637 -2.675363,-2.225949 -0.891809,-0.481259 -1.817376,-0.721901 -2.77671,-0.721929 -1.824129,2.8e-5 -3.242902,0.882385 -4.256283,2.647075 -1.013401,1.744685 -1.520105,4.19122 -1.520096,7.339615 -9e-6,3.148427 0.506695,5.604991 1.520096,7.369695 1.013381,1.74467 2.432154,2.617 4.256283,2.616994 1.026895,6e-6 1.99975,-0.250664 2.918584,-0.752009 0.918797,-0.501332 1.76329,-1.243315 2.533489,-2.225949 l 0,8.813553 c -1.01342,0.621663 -2.047075,1.082895 -3.100995,1.383699 -1.053947,0.320856 -2.107875,0.481284 -3.161791,0.481286 -3.688788,-2e-6 -6.573596,-1.554153 -8.65443,-4.662461 -2.080845,-3.128353 -3.121265,-7.469951 -3.121263,-13.024808 -2e-6,-5.554823 1.040418,-9.886395 3.121263,-12.994729 2.080834,-3.128327 4.965642,-4.692506 8.65443,-4.692541 1.067428,3.5e-5 2.121356,0.160464 3.161791,0.481288 1.040407,0.300837 2.074072,0.762068 3.100995,1.383697" />
      <path
         style="font-size:44.69659805px;font-style:normal;font-variant:normal;font-weight:bold;font-stretch:semi-condensed;text-align:start;line-height:100%;writing-mode:lr-tb;text-anchor:start;fill:#e5269a;fill-opacity:1;stroke:none;font-family:DejaVu Sans;-inkscape-font-specification:DejaVu Sans Bold Semi-Condensed"
         id="path3773"
         d="m 103.75345,26.512989 c -1.44579,2.8e-5 -2.54702,0.862331 -3.30368,2.586914 -0.756675,1.704578 -1.135009,4.171168 -1.135,7.399776 -9e-6,3.228642 0.378325,5.705258 1.135,7.429856 0.75666,1.704563 1.85789,2.556839 3.30368,2.556833 1.43225,6e-6 2.51996,-0.85227 3.26313,-2.556833 0.75666,-1.724598 1.135,-4.201214 1.13501,-7.429856 -1e-5,-3.228608 -0.37835,-5.695198 -1.13501,-7.399776 -0.74317,-1.724583 -1.83088,-2.586886 -3.26313,-2.586914 m 0,-7.70058 c 3.5266,3.5e-5 6.27628,1.564214 8.24905,4.692541 1.97272,3.128388 2.95909,7.459959 2.95912,12.994729 -3e-5,5.534803 -0.9864,9.866374 -2.95912,12.994727 -1.97277,3.128362 -4.72245,4.69254 -8.24905,4.692541 -3.51312,-1e-6 -6.269559,-1.564179 -8.269318,-4.692541 -1.986265,-3.128353 -2.979393,-7.459924 -2.979393,-12.994727 0,-5.53477 0.993128,-9.866341 2.979393,-12.994729 1.999759,-3.128327 4.756198,-4.692506 8.269318,-4.692541" />
      <path
         style="font-size:44.69659805px;font-style:normal;font-variant:normal;font-weight:bold;font-stretch:semi-condensed;text-align:start;line-height:100%;writing-mode:lr-tb;text-anchor:start;fill:#e5269a;fill-opacity:1;stroke:none;font-family:DejaVu Sans;-inkscape-font-specification:DejaVu Sans Bold Semi-Condensed"
         id="path3775"
         d="m 130.33302,28.889892 c -0.58103,-0.441154 -1.15529,-0.762011 -1.72277,-0.962572 -0.55402,-0.220564 -1.12151,-0.330858 -1.70251,-0.330885 -1.67549,2.7e-5 -2.96589,0.892411 -3.87118,2.677154 -0.90531,1.764738 -1.35797,4.301515 -1.35795,7.61034 l 0,15.52148 -6.52628,0 0,-33.690036 6.52628,0 0,5.534792 c 0.83773,-2.205865 1.79708,-3.810151 2.87805,-4.812863 1.09445,-1.022698 2.40511,-1.534065 3.93198,-1.5341 0.21617,3.5e-5 0.45263,0.0201 0.70938,0.06016 0.2567,0.0201 0.62828,0.08024 1.11473,0.180483 l 0.0203,9.746047" />
      <path
         style="font-size:44.69659805px;font-style:normal;font-variant:normal;font-weight:bold;font-stretch:semi-condensed;text-align:start;line-height:100%;writing-mode:lr-tb;text-anchor:start;fill:#e5269a;fill-opacity:1;stroke:none;font-family:DejaVu Sans;-inkscape-font-specification:DejaVu Sans Bold Semi-Condensed"
         id="path3777"
         d="m 145.26185,24.959474 0,-18.0482375 6.56681,0 0,46.8050885 -6.56681,0 0,-4.873023 c -0.90532,1.985309 -1.89845,3.439194 -2.9794,4.361658 -1.08096,0.922464 -2.33757,1.383695 -3.76982,1.383697 -2.51324,-2e-6 -4.58057,-1.644394 -6.20199,-4.933184 -1.60793,-3.308836 -2.41189,-7.560192 -2.41189,-12.754085 0,-5.193859 0.80396,-9.435189 2.41189,-12.724004 1.62142,-3.308811 3.68875,-4.963231 6.20199,-4.963265 1.41874,3.4e-5 2.66859,0.471293 3.74956,1.413778 1.09446,0.922498 2.09434,2.366355 2.99966,4.331577 m -4.31707,21.808281 c 1.40523,7e-6 2.47267,-0.842242 3.20233,-2.526752 0.74314,-1.68449 1.11472,-4.131027 1.11474,-7.339615 -2e-5,-3.208555 -0.3716,-5.655091 -1.11474,-7.339615 -0.72966,-1.684476 -1.7971,-2.526725 -3.20233,-2.526753 -1.37824,2.8e-5 -2.43892,0.842277 -3.18207,2.526753 -0.72965,1.684524 -1.09448,4.13106 -1.09447,7.339615 -1e-5,3.208588 0.36482,5.655125 1.09447,7.339615 0.74315,1.68451 1.80383,2.526759 3.18207,2.526752" />
      <path
         style="font-size:44.69659805px;font-style:normal;font-variant:normal;font-weight:bold;font-stretch:semi-condensed;text-align:start;line-height:100%;writing-mode:lr-tb;text-anchor:start;fill:#e5269a;fill-opacity:1;stroke:none;font-family:DejaVu Sans;-inkscape-font-specification:DejaVu Sans Bold Semi-Condensed"
         id="path3779"
         d="m 172.97545,36.170556 0,3.068199 -15.26176,0 c 0.14862,2.526764 0.69586,4.421827 1.6417,5.685193 0.95934,1.263384 2.29026,1.895071 3.99278,1.895064 1.37821,7e-6 2.78345,-0.330876 4.21573,-0.992651 1.44577,-0.681816 2.92532,-1.704547 4.43869,-3.0682 l 0,8.302186 c -1.54039,0.962575 -3.08751,1.684503 -4.64136,2.165789 -1.54038,0.50134 -3.08075,0.752008 -4.62109,0.75201 -3.70229,-2e-6 -6.58033,-1.544126 -8.63414,-4.632381 -2.04032,-3.108299 -3.06047,-7.459924 -3.06046,-13.054888 -10e-6,-5.494663 1.00663,-9.816207 3.01992,-12.964647 2.01327,-3.148382 4.78322,-4.722588 8.30986,-4.722623 3.21582,3.5e-5 5.7831,1.594294 7.70181,4.782783 1.93219,3.188548 2.89829,7.449932 2.89832,12.784166 m -6.70869,-3.579567 c -2e-5,-2.045443 -0.36484,-3.689838 -1.09447,-4.933184 -0.71615,-1.26335 -1.66199,-1.895037 -2.83751,-1.895064 -1.25662,2.7e-5 -2.28353,0.591608 -3.08073,1.774742 -0.7837,1.163133 -1.27689,2.847633 -1.47956,5.053506 l 8.49227,0" />
      <path
         style="font-size:44.69659805px;font-style:normal;font-variant:normal;font-weight:bold;font-stretch:semi-condensed;text-align:start;line-height:100%;writing-mode:lr-tb;text-anchor:start;fill:#e5269a;fill-opacity:1;stroke:none;font-family:DejaVu Sans;-inkscape-font-specification:DejaVu Sans Bold Semi-Condensed"
         id="path3781"
         d="m 188.44738,28.671983 c -0.58104,-0.441155 -1.15529,-0.762011 -1.72278,-0.962572 -0.554,-0.220565 -1.12151,-0.330859 -1.70251,-0.330885 -1.67549,2.6e-5 -2.96588,0.89241 -3.87117,2.677154 -0.90532,1.764738 -1.35796,4.301515 -1.35795,7.610339 l 0,15.521481 -6.52628,0 0,-33.690036 6.52628,0 0,5.534791 c 0.83773,-2.205864 1.79707,-3.810151 2.87804,-4.812862 1.09446,-1.022699 2.40512,-1.534066 3.93199,-1.5341 0.21617,3.4e-5 0.45263,0.02009 0.70937,0.06016 0.25671,0.0201 0.62829,0.08024 1.11474,0.180482 l 0.0202,9.746047" />
      <path
         style="font-size:44.69659805px;font-style:normal;font-variant:normal;font-weight:bold;font-stretch:semi-condensed;text-align:start;line-height:100%;writing-mode:lr-tb;text-anchor:start;fill:#e5269a;fill-opacity:1;stroke:none;font-family:DejaVu Sans;-inkscape-font-specification:DejaVu Sans Bold Semi-Condensed"
         d="m 31.675078,8.9555567 0,16.1004003 7.639095,5.547007 -7.639095,6.102593 0,17.15625 7.03125,0 0,-17 2,0 c 1.134991,1.7e-5 2.029626,0.427819 2.71875,1.25 0.689094,0.822212 1.386885,2.34776 2.0625,4.59375 l 3.28125,11.15625 7.5,0 -3.8125,-12.75 c -0.770204,-2.586898 -1.542341,-4.517856 -2.3125,-5.78125 -0.756691,-1.28341 -1.603171,-2.107764 -2.5625,-2.46875 1.756534,-0.90239 3.041463,-2.282385 3.90625,-4.1875 0.864742,-1.905064 1.312475,-4.344539 1.3125,-7.3125 -2.5e-5,-4.291432 -0.855791,-7.452154 -2.53125,-9.4375 -1.661992,-1.9852613 -4.280837,-2.9687063 -7.875,-2.9687503 l -10.71875,0 z m 7.03125,8.4062503 2.96875,0 c 1.459276,3.7e-5 2.489922,0.430177 3.125,1.3125 0.648557,0.882391 0.968732,2.360816 0.96875,4.40625 -1.8e-5,2.065548 -0.320193,3.535115 -0.96875,4.4375 -0.635078,0.902437 -1.665724,1.343774 -3.125,1.34375 l -2.96875,0 0,-11.5 z"
         id="path3783"
         sodipodi:nodetypes="ccccccccsccccccssccccccscccc" />
    </g>
  </g>
</svg>
